<svg class="Path_15" viewBox="-436.61 -103.088 62.743 57.346"><path id="Path_15" d="M -373.8662109375 -61.79061508178711 C -374.2676086425781 -59.37480163574219 -375.7752685546875 -57.66762542724609 -377.4922485351562 -56.08362579345703 C -378.1971435546875 -55.43354797363281 -378.8537902832031 -54.73147201538086 -379.532470703125 -54.05281448364258 C -379.6481018066406 -53.93712615966797 -379.7666320800781 -53.82424926757812 -379.8780517578125 -53.70529174804688 C -381.0124206542969 -52.49082946777344 -381.0761413574219 -51.0843391418457 -380.0218811035156 -49.79775238037109 C -379.5080871582031 -49.17061233520508 -379.1474304199219 -48.50553894042969 -379.3165283203125 -47.67513656616211 C -379.5066833496094 -46.74029159545898 -380.0574340820312 -46.10659408569336 -380.9918518066406 -45.8377571105957 C -381.8887634277344 -45.57968902587891 -382.6400146484375 -45.85461807250977 -383.2774658203125 -46.48831176757812 C -385.7738037109375 -48.96921920776367 -386.0993347167969 -53.10859680175781 -384.0141906738281 -55.96653747558594 C -383.7149047851562 -56.37682342529297 -383.3682861328125 -56.75666427612305 -383.0114135742188 -57.11917114257812 C -381.8222351074219 -58.32661056518555 -380.6087036132812 -59.51015853881836 -379.4223327636719 -60.72040557861328 C -378.2261657714844 -61.94142150878906 -378.1859130859375 -63.64391708374023 -379.3005981445312 -64.76704406738281 C -380.4274597167969 -65.90235137939453 -382.1098022460938 -65.86628723144531 -383.3444519042969 -64.65604400634766 C -384.5546569824219 -63.46968841552734 -385.7405700683594 -62.25850296020508 -386.9432983398438 -61.06465148925781 C -390.1553039550781 -57.8746452331543 -394.6427001953125 -57.86808395385742 -397.8509826660156 -61.05247497558594 C -399.4593200683594 -62.64911651611328 -401.0583190917969 -64.255126953125 -402.6573181152344 -65.86160278320312 C -402.8141784667969 -66.01897430419922 -402.9397277832031 -66.20725250244141 -402.9654846191406 -66.23863220214844 C -404.5232238769531 -65.52860260009766 -405.8890075683594 -64.70943450927734 -407.3671569824219 -64.26683807373047 C -413.1026916503906 -62.54841995239258 -418.1530456542969 -63.86357879638672 -422.446533203125 -68.020751953125 C -424.3681640625 -69.88108062744141 -426.2355346679688 -71.79714965820312 -428.1239624023438 -73.69168090820312 C -428.2808837890625 -73.84857940673828 -428.41064453125 -74.03311157226562 -428.5824890136719 -74.24106597900391 C -428.9037780761719 -73.93475341796875 -429.1436462402344 -73.692138671875 -429.3974609375 -73.46546173095703 C -430.3706970214844 -72.59571075439453 -431.698974609375 -72.6158447265625 -432.5949401855469 -73.508544921875 C -433.4876403808594 -74.39703369140625 -433.5555725097656 -75.76511383056641 -432.6623840332031 -76.70323944091797 C -431.2966613769531 -78.13688659667969 -429.8751831054688 -79.51715087890625 -428.4780578613281 -80.92083740234375 C -428.3647155761719 -81.03464508056641 -428.2588806152344 -81.15501403808594 -428.1263427734375 -81.29739379882812 C -428.2963256835938 -81.47631072998047 -428.4443359375 -81.63883972167969 -428.599365234375 -81.79386138916016 C -430.98193359375 -84.17547607421875 -433.3625793457031 -86.55943298339844 -435.7512512207031 -88.93544006347656 C -436.4734802246094 -89.65436553955078 -436.8115844726562 -90.47540283203125 -436.4842224121094 -91.4814453125 C -435.9896545410156 -93.00174713134766 -434.1728515625 -93.56706237792969 -432.89892578125 -92.60129547119141 C -432.6886291503906 -92.44205474853516 -432.49755859375 -92.25424194335938 -432.3101806640625 -92.06736755371094 C -429.98388671875 -89.74476623535156 -427.6602783203125 -87.41934967041016 -425.3348999023438 -85.0953369140625 C -425.1789245605469 -84.93937683105469 -425.0163879394531 -84.79043579101562 -424.8974304199219 -84.67709350585938 L -418.2134399414062 -91.36388397216797 C -418.3057556152344 -91.46177673339844 -418.4523315429688 -91.62476348876953 -418.6064147949219 -91.77932739257812 C -421.0025024414062 -94.17687225341797 -423.4061584472656 -96.56642913818359 -425.79296875 -98.97335052490234 C -427.0818786621094 -100.2730560302734 -426.7858581542969 -102.1975555419922 -425.2168884277344 -102.8823013305664 C -424.2703247070312 -103.294921875 -423.3415222167969 -103.08837890625 -422.491943359375 -102.2434539794922 C -420.5660095214844 -100.3287887573242 -418.6476440429688 -98.40663146972656 -416.7301635742188 -96.48307037353516 C -416.1114501953125 -95.86203002929688 -415.5058288574219 -95.2269287109375 -414.8501586914062 -94.55295562744141 C -414.0010375976562 -95.40679168701172 -413.2001037597656 -96.21798706054688 -412.3926696777344 -97.02262878417969 C -411.6549987792969 -97.75701141357422 -410.942138671875 -98.52044677734375 -410.1604309082031 -99.20565795898438 C -409.2110900878906 -100.0379333496094 -407.8631286621094 -99.93817138671875 -407.0126037597656 -99.04875183105469 C -406.1625061035156 -98.15933990478516 -406.1456604003906 -96.83247375488281 -406.9798278808594 -95.88637542724609 C -407.2069702148438 -95.62924957275391 -407.4533081054688 -95.38945007324219 -407.7151184082031 -95.11592864990234 C -407.5408935546875 -94.93138885498047 -407.3938293457031 -94.76792907714844 -407.2388000488281 -94.61290740966797 C -405.3335266113281 -92.70668029785156 -403.4221496582031 -90.80606842041016 -401.52197265625 -88.89468383789062 C -398.9066467285156 -86.26390075683594 -397.4027404785156 -83.11603546142578 -397.1231384277344 -79.39865875244141 C -397.0191650390625 -78.01651763916016 -397.8369445800781 -76.89855194091797 -399.0911865234375 -76.75054168701172 C -400.4162292480469 -76.59457397460938 -401.5196533203125 -77.42357635498047 -401.6891784667969 -78.83100891113281 C -401.9013671875 -80.59532165527344 -402.3125305175781 -82.28236389160156 -403.3135070800781 -83.77033996582031 C -403.732177734375 -84.39373779296875 -404.2033996582031 -84.99604034423828 -404.7283935546875 -85.53137969970703 C -406.7297058105469 -87.57250213623047 -408.7624206542969 -89.58223724365234 -410.7847900390625 -91.60275268554688 C -410.8550415039062 -91.67301177978516 -410.9365539550781 -91.73249053955078 -410.9749450683594 -91.76480102539062 C -415.7550659179688 -86.98424530029297 -420.5144958496094 -82.2252197265625 -425.35595703125 -77.38377380371094 C -425.1044311523438 -77.15614318847656 -424.8088989257812 -76.9097900390625 -424.5363159179688 -76.6400146484375 C -422.5771484375 -74.70099639892578 -420.6877746582031 -72.68656921386719 -418.6532287597656 -70.83045959472656 C -414.7162170410156 -67.23765563964844 -409.0086975097656 -67.27278137207031 -405.0304565429688 -70.83184814453125 C -404.249755859375 -71.53018188476562 -403.445556640625 -72.11517333984375 -402.3533020019531 -71.69505310058594 C -401.9140014648438 -71.52644348144531 -401.4957885742188 -71.22106170654297 -401.1575622558594 -70.88712310791016 C -398.990966796875 -68.75139617919922 -396.8500671386719 -66.58943176269531 -394.6994018554688 -64.43778228759766 C -393.1785888671875 -62.91608428955078 -391.654541015625 -62.9207649230957 -390.1230163574219 -64.44950103759766 C -388.9961853027344 -65.57449340820312 -387.8697509765625 -66.70044708251953 -386.7428894042969 -67.82638549804688 C -384.6207275390625 -69.94758605957031 -382.0967102050781 -70.76628875732422 -379.1975708007812 -69.90028381347656 C -376.2904357910156 -69.03194427490234 -374.5448303222656 -67.01799011230469 -373.963623046875 -64.02141571044922 C -373.9533081054688 -63.96802520751953 -373.8994750976562 -63.92259216308594 -373.8662109375 -63.87341690063477 L -373.8662109375 -61.79061508178711 Z">		</path></svg>