<?xml version="1.0" encoding="UTF-8"?>
<svg xmlns="http://www.w3.org/2000/svg" version="1.2" viewBox="0 0 395 562" width="395" height="562">
  <title>Group 1677-svg</title>
  <defs>
    <clipPath id="cp1">
      <path d="m41.85 115v-35h81v35z"></path>
    </clipPath>
    <clipPath id="cp2">
      <path d="m132.85 115v-35h80v35z"></path>
    </clipPath>
  </defs>
  <style>
		.s0 { fill: #df5928 } 
		.s1 { fill: #3c3c3c } 
		.s2 { fill: #ffffff } 
	</style>
  <g id="Group_1677">
    <path id="Path_257" class="s0" d="m-156 561.8v-561.8l301.7 561.8z"></path>
    <path id="Path_256" class="s1" d="m0 0h395v310.9l-395 75.8z"></path>
    <g id="Group_1673">
      <g id="Group_29" style="opacity: .1">
        <g id="Clip-Path: Group_28" clip-path="url(#cp1)">
          <g id="Group_28">
            <path id="Path_209" fill-rule="evenodd" class="s2" d="m121.3 80.7q0.4 0.2 0.6 0.4 0.3 0.3 0.5 0.7 0.1 0.3 0.1 0.7c0 0.8-0.5 1.5-1.2 1.8-0.7 0.3-1.5 0.1-2.1-0.4-0.5-0.6-0.7-1.4-0.4-2.1 0.3-0.7 1-1.2 1.8-1.2q0.4 0 0.7 0.1zm-14.2 1.8c0 0.8-0.5 1.5-1.2 1.8-0.7 0.3-1.5 0.1-2.1-0.4-0.5-0.6-0.7-1.4-0.4-2.1 0.3-0.7 1-1.2 1.8-1.2q0.4 0 0.7 0.1 0.4 0.2 0.7 0.4 0.2 0.3 0.4 0.7 0.1 0.3 0.1 0.7zm-15.4 0c0 0.8-0.4 1.5-1.2 1.8-0.7 0.3-1.5 0.1-2.1-0.4-0.5-0.6-0.7-1.4-0.4-2.1 0.3-0.7 1-1.2 1.8-1.2q0.4 0 0.7 0.1 0.4 0.2 0.7 0.4 0.2 0.3 0.4 0.7 0.1 0.3 0.1 0.7zm-15.4 0c0 0.8-0.4 1.5-1.1 1.8-0.8 0.3-1.6 0.1-2.1-0.4-0.6-0.6-0.8-1.4-0.5-2.1 0.3-0.8 1-1.2 1.8-1.2q0.4 0 0.8 0.1 0.3 0.2 0.6 0.5 0.2 0.2 0.4 0.6 0.1 0.3 0.1 0.7zm-15.3 0c0 0.8-0.5 1.5-1.2 1.8-0.7 0.3-1.6 0.1-2.1-0.4-0.6-0.6-0.7-1.4-0.4-2.1 0.3-0.7 1-1.2 1.7-1.2q0.4 0 0.8 0.1 0.3 0.2 0.6 0.4 0.3 0.3 0.4 0.7 0.2 0.3 0.2 0.7zm-15.4 0c0 0.8-0.5 1.5-1.2 1.8-0.7 0.3-1.6 0.1-2.1-0.4-0.6-0.6-0.7-1.4-0.4-2.1 0.3-0.7 1-1.2 1.7-1.2q0.4 0 0.8 0.1 0.3 0.2 0.6 0.4 0.3 0.3 0.4 0.7 0.2 0.3 0.2 0.7zm76.9 15.4c0 0.8-0.5 1.5-1.2 1.8-0.7 0.3-1.5 0.1-2.1-0.4-0.5-0.6-0.7-1.4-0.4-2.1 0.3-0.8 1-1.2 1.8-1.2q0.4 0 0.7 0.1 0.4 0.2 0.6 0.4 0.3 0.3 0.5 0.7 0.1 0.3 0.1 0.7zm-15.4 0c0 0.8-0.5 1.5-1.2 1.8-0.7 0.3-1.5 0.1-2.1-0.4-0.5-0.6-0.7-1.4-0.4-2.1 0.3-0.8 1-1.2 1.8-1.2q0.4 0 0.7 0.1 0.4 0.2 0.7 0.4 0.2 0.3 0.4 0.7 0.1 0.3 0.1 0.7zm-15.4 0c0 0.8-0.4 1.5-1.2 1.8-0.7 0.3-1.5 0.1-2.1-0.4-0.5-0.6-0.7-1.4-0.4-2.1 0.3-0.8 1-1.2 1.8-1.2q0.4 0 0.7 0.1 0.4 0.2 0.7 0.4 0.2 0.3 0.4 0.7 0.1 0.3 0.1 0.7zm-15.4 0c0 0.8-0.4 1.5-1.2 1.8-0.7 0.3-1.5 0.1-2-0.4-0.6-0.6-0.8-1.4-0.5-2.1 0.3-0.8 1-1.2 1.8-1.2q0.4 0 0.8 0.1 0.3 0.2 0.6 0.4 0.3 0.3 0.4 0.7 0.1 0.3 0.1 0.7zm-15.3 0c0 0.8-0.5 1.5-1.2 1.8-0.7 0.3-1.6 0.1-2.1-0.4-0.6-0.6-0.7-1.4-0.4-2.1 0.3-0.8 1-1.2 1.7-1.2q0.4 0 0.8 0.1 0.3 0.2 0.6 0.4 0.3 0.3 0.4 0.7 0.2 0.3 0.2 0.7zm-15.4 0c0 0.8-0.5 1.5-1.2 1.8-0.7 0.3-1.6 0.1-2.1-0.4-0.6-0.6-0.7-1.4-0.4-2.1 0.3-0.8 1-1.2 1.8-1.2q0.3 0 0.7 0.1 0.3 0.2 0.6 0.4 0.3 0.3 0.4 0.7 0.2 0.3 0.2 0.7zm76.9 15.4c0 0.8-0.5 1.5-1.2 1.8-0.7 0.3-1.5 0.1-2.1-0.5-0.5-0.5-0.7-1.3-0.4-2.1 0.3-0.7 1-1.1 1.8-1.1q0.4 0 0.7 0.1 0.4 0.2 0.6 0.4 0.3 0.3 0.5 0.6 0.1 0.4 0.1 0.8zm-15.4 0c0 0.8-0.5 1.5-1.2 1.8-0.7 0.3-1.5 0.1-2.1-0.5-0.5-0.5-0.7-1.3-0.4-2.1 0.3-0.7 1-1.1 1.8-1.1q0.4 0 0.7 0.1 0.4 0.2 0.7 0.4 0.2 0.3 0.4 0.6 0.1 0.4 0.1 0.8zm-15.4 0c0 0.8-0.4 1.5-1.2 1.8-0.7 0.3-1.5 0.1-2.1-0.5-0.5-0.5-0.7-1.3-0.4-2.1 0.3-0.7 1-1.1 1.8-1.1q0.4 0 0.7 0.1 0.4 0.2 0.7 0.4 0.2 0.3 0.4 0.6 0.1 0.4 0.1 0.8zm-15.4 0c0 0.8-0.4 1.5-1.2 1.8-0.7 0.3-1.5 0.1-2-0.5-0.6-0.5-0.8-1.3-0.5-2.1 0.3-0.7 1-1.1 1.8-1.1q0.4 0 0.8 0.1 0.3 0.2 0.6 0.4 0.3 0.3 0.4 0.6 0.1 0.4 0.1 0.8zm-15.3 0c0 0.8-0.5 1.5-1.2 1.8-0.7 0.3-1.6 0.1-2.1-0.5-0.6-0.5-0.7-1.3-0.4-2.1 0.3-0.7 1-1.1 1.7-1.1q0.4 0 0.8 0.1 0.3 0.2 0.6 0.4 0.3 0.3 0.4 0.6 0.2 0.4 0.2 0.8zm-15.4 0c0 0.8-0.5 1.5-1.2 1.8-0.7 0.3-1.6 0.1-2.1-0.5-0.6-0.5-0.7-1.3-0.4-2.1 0.3-0.7 1-1.1 1.7-1.1q0.4 0 0.8 0.1 0.3 0.2 0.6 0.4 0.3 0.3 0.4 0.6 0.2 0.4 0.2 0.8z"></path>
          </g>
        </g>
      </g>
      <g id="Group_30" style="opacity: .1">
        <g id="Clip-Path: Group_28-2" clip-path="url(#cp2)">
          <g id="Group_28-2">
            <path id="Path_209-2" fill-rule="evenodd" class="s2" d="m212.2 80.7q0.4 0.2 0.6 0.4 0.3 0.3 0.4 0.7 0.2 0.3 0.2 0.7c0 0.8-0.5 1.5-1.2 1.8-0.7 0.3-1.5 0.1-2.1-0.4-0.5-0.6-0.7-1.4-0.4-2.1 0.3-0.7 1-1.2 1.8-1.2q0.3 0 0.7 0.1zm-14.2 1.8c0 0.8-0.5 1.5-1.2 1.8-0.7 0.3-1.5 0.1-2.1-0.4-0.5-0.6-0.7-1.4-0.4-2.1 0.3-0.7 1-1.2 1.8-1.2q0.4 0 0.7 0.1 0.4 0.2 0.6 0.4 0.3 0.3 0.5 0.7 0.1 0.3 0.1 0.7zm-15.4 0c0 0.8-0.5 1.5-1.2 1.8-0.7 0.3-1.5 0.1-2.1-0.4-0.5-0.6-0.7-1.4-0.4-2.1 0.3-0.7 1-1.2 1.8-1.2q0.4 0 0.7 0.1 0.4 0.2 0.6 0.4 0.3 0.3 0.5 0.7 0.1 0.3 0.1 0.7zm-15.4 0c0 0.8-0.4 1.5-1.2 1.8-0.7 0.3-1.5 0.1-2.1-0.4-0.5-0.6-0.7-1.4-0.4-2.1 0.3-0.8 1-1.2 1.8-1.2q0.4 0 0.7 0.1 0.4 0.2 0.7 0.5 0.2 0.2 0.4 0.6 0.1 0.3 0.1 0.7zm-15.4 0c0 0.8-0.4 1.5-1.1 1.8-0.8 0.3-1.6 0.1-2.1-0.4-0.6-0.6-0.8-1.4-0.5-2.1 0.3-0.7 1-1.2 1.8-1.2q0.4 0 0.8 0.1 0.3 0.2 0.6 0.4 0.3 0.3 0.4 0.7 0.1 0.3 0.1 0.7zm-15.3 0c0 0.8-0.5 1.5-1.2 1.8-0.7 0.3-1.6 0.1-2.1-0.4-0.6-0.6-0.7-1.4-0.4-2.1 0.3-0.7 1-1.2 1.7-1.2q0.4 0 0.8 0.1 0.3 0.2 0.6 0.4 0.3 0.3 0.4 0.7 0.2 0.3 0.2 0.7zm76.9 15.4c0 0.8-0.5 1.5-1.2 1.8-0.7 0.3-1.5 0.1-2.1-0.4-0.5-0.6-0.7-1.4-0.4-2.1 0.3-0.8 1-1.2 1.8-1.2q0.3 0 0.7 0.1 0.4 0.2 0.6 0.4 0.3 0.3 0.4 0.7 0.2 0.3 0.2 0.7zm-15.4 0c0 0.8-0.5 1.5-1.2 1.8-0.7 0.3-1.5 0.1-2.1-0.4-0.5-0.6-0.7-1.4-0.4-2.1 0.3-0.8 1-1.2 1.8-1.2q0.4 0 0.7 0.1 0.4 0.2 0.6 0.4 0.3 0.3 0.5 0.7 0.1 0.3 0.1 0.7zm-15.4 0c0 0.8-0.5 1.5-1.2 1.8-0.7 0.3-1.5 0.1-2.1-0.4-0.5-0.6-0.7-1.4-0.4-2.1 0.3-0.8 1-1.2 1.8-1.2q0.4 0 0.7 0.1 0.4 0.2 0.7 0.4 0.2 0.3 0.4 0.7 0.1 0.3 0.1 0.7zm-15.4 0c0 0.8-0.4 1.5-1.2 1.8-0.7 0.3-1.5 0.1-2.1-0.4-0.5-0.6-0.7-1.4-0.4-2.1 0.3-0.8 1-1.2 1.8-1.2q0.4 0 0.7 0.1 0.4 0.2 0.7 0.4 0.2 0.3 0.4 0.7 0.1 0.3 0.1 0.7zm-15.3 0c0 0.8-0.5 1.5-1.2 1.8-0.8 0.3-1.6 0.1-2.1-0.4-0.6-0.6-0.7-1.4-0.4-2.1 0.2-0.8 0.9-1.2 1.7-1.2q0.4 0 0.8 0.1 0.3 0.2 0.6 0.4 0.3 0.3 0.4 0.7 0.1 0.3 0.2 0.7zm-15.4 0c0 0.8-0.5 1.5-1.2 1.8-0.7 0.3-1.6 0.1-2.1-0.4-0.6-0.6-0.7-1.4-0.4-2.1 0.3-0.8 1-1.2 1.7-1.2q0.4 0 0.8 0.1 0.3 0.2 0.6 0.4 0.3 0.3 0.4 0.7 0.2 0.3 0.2 0.7zm76.9 15.4c0 0.8-0.5 1.5-1.2 1.8-0.7 0.3-1.5 0.1-2.1-0.5-0.5-0.5-0.7-1.3-0.4-2.1 0.3-0.7 1-1.1 1.8-1.1q0.3 0 0.7 0.1 0.4 0.2 0.6 0.4 0.3 0.3 0.4 0.6 0.2 0.4 0.2 0.8zm-15.4 0c0 0.8-0.5 1.5-1.2 1.8-0.7 0.3-1.5 0.1-2.1-0.5-0.5-0.5-0.7-1.3-0.4-2.1 0.3-0.7 1-1.1 1.8-1.1q0.4 0 0.7 0.1 0.4 0.2 0.6 0.4 0.3 0.3 0.5 0.6 0.1 0.4 0.1 0.8zm-15.4 0c0 0.8-0.5 1.5-1.2 1.8-0.7 0.3-1.5 0.1-2.1-0.5-0.5-0.5-0.7-1.3-0.4-2.1 0.3-0.7 1-1.1 1.8-1.1q0.4 0 0.7 0.1 0.4 0.2 0.6 0.4 0.3 0.3 0.5 0.6 0.1 0.4 0.1 0.8zm-15.4 0c0 0.8-0.4 1.5-1.2 1.8-0.7 0.3-1.5 0.1-2.1-0.5-0.5-0.5-0.7-1.3-0.4-2.1 0.3-0.7 1-1.1 1.8-1.1q0.4 0 0.7 0.1 0.4 0.2 0.7 0.4 0.2 0.3 0.4 0.6 0.1 0.4 0.1 0.8zm-15.3 0c0 0.8-0.5 1.5-1.2 1.8-0.8 0.3-1.6 0.1-2.1-0.5-0.6-0.5-0.7-1.3-0.4-2.1 0.2-0.7 0.9-1.1 1.7-1.1q0.4 0 0.8 0.1 0.3 0.2 0.6 0.4 0.3 0.3 0.4 0.6 0.1 0.4 0.2 0.8zm-15.4 0c0 0.8-0.5 1.5-1.2 1.8-0.7 0.3-1.6 0.1-2.1-0.5-0.6-0.5-0.7-1.3-0.4-2.1 0.3-0.7 1-1.1 1.7-1.1q0.4 0 0.8 0.1 0.3 0.2 0.6 0.4 0.3 0.3 0.4 0.6 0.2 0.4 0.2 0.8z"></path>
          </g>
        </g>
      </g>
    </g>
  </g>
</svg>
