<?xml version="1.0" encoding="UTF-8"?>
<svg xmlns="http://www.w3.org/2000/svg" xmlns:xlink="http://www.w3.org/1999/xlink" width="171.001" height="35" viewBox="0 0 171.001 35">
  <defs>
    <clipPath id="clip-path">
      <rect id="Rectangle_1387" data-name="Rectangle 1387" width="35" height="81" transform="translate(-0.212 0)" fill="#fff"></rect>
    </clipPath>
    <clipPath id="clip-path-2">
      <rect id="Rectangle_1387-2" data-name="Rectangle 1387" width="35" height="80" transform="translate(-0.212 -0.134)" fill="#fff"></rect>
    </clipPath>
  </defs>
  <g id="Group_1673" data-name="Group 1673" transform="translate(-282.999 -178)">
    <g id="Group_29" data-name="Group 29" transform="translate(283 212.788) rotate(-90)" opacity="0.123">
      <g id="Group_28" data-name="Group 28" transform="translate(0 0)" clip-path="url(#clip-path)">
        <path id="Path_209" data-name="Path 209" d="M34.619,78.854A1.923,1.923,0,1,0,32.7,80.777a1.923,1.923,0,0,0,1.923-1.923M32.7,65.391a1.923,1.923,0,1,1,1.923-1.923A1.923,1.923,0,0,1,32.7,65.391M32.7,50a1.923,1.923,0,1,1,1.923-1.923A1.923,1.923,0,0,1,32.7,50m0-15.386A1.923,1.923,0,1,1,34.619,32.7,1.923,1.923,0,0,1,32.7,34.619m0-15.386a1.923,1.923,0,1,1,1.923-1.923A1.923,1.923,0,0,1,32.7,19.233m0-15.386a1.923,1.923,0,1,1,1.923-1.923A1.923,1.923,0,0,1,32.7,3.847M17.309,80.777a1.923,1.923,0,1,1,1.923-1.923,1.923,1.923,0,0,1-1.923,1.923m0-15.386a1.923,1.923,0,1,1,1.923-1.923,1.923,1.923,0,0,1-1.923,1.923m0-15.386a1.923,1.923,0,1,1,1.923-1.923A1.923,1.923,0,0,1,17.309,50m0-15.386A1.923,1.923,0,1,1,19.233,32.7a1.923,1.923,0,0,1-1.923,1.923m0-15.386a1.923,1.923,0,1,1,1.923-1.923,1.923,1.923,0,0,1-1.923,1.923m0-15.386a1.923,1.923,0,1,1,1.923-1.923,1.923,1.923,0,0,1-1.923,1.923M1.923,80.777a1.923,1.923,0,1,1,1.923-1.923,1.923,1.923,0,0,1-1.923,1.923m0-15.386a1.923,1.923,0,1,1,1.923-1.923,1.923,1.923,0,0,1-1.923,1.923M1.923,50a1.923,1.923,0,1,1,1.923-1.923A1.923,1.923,0,0,1,1.923,50m0-15.386A1.923,1.923,0,1,1,3.847,32.7a1.923,1.923,0,0,1-1.923,1.923m0-15.386a1.923,1.923,0,1,1,1.923-1.923,1.923,1.923,0,0,1-1.923,1.923m0-15.386A1.923,1.923,0,1,1,3.847,1.923,1.923,1.923,0,0,1,1.923,3.847" transform="translate(-0.418 -0.125)" fill="#fff"></path>
      </g>
    </g>
    <g id="Group_30" data-name="Group 30" transform="translate(374.135 212.788) rotate(-90)" opacity="0.123">
      <g id="Group_28-2" data-name="Group 28" transform="translate(0 0)" clip-path="url(#clip-path-2)">
        <path id="Path_209-2" data-name="Path 209" d="M34.619,78.854A1.923,1.923,0,1,0,32.7,80.777a1.923,1.923,0,0,0,1.923-1.923M32.7,65.391a1.923,1.923,0,1,1,1.923-1.923A1.923,1.923,0,0,1,32.7,65.391M32.7,50a1.923,1.923,0,1,1,1.923-1.923A1.923,1.923,0,0,1,32.7,50m0-15.386A1.923,1.923,0,1,1,34.619,32.7,1.923,1.923,0,0,1,32.7,34.619m0-15.386a1.923,1.923,0,1,1,1.923-1.923A1.923,1.923,0,0,1,32.7,19.233m0-15.386a1.923,1.923,0,1,1,1.923-1.923A1.923,1.923,0,0,1,32.7,3.847M17.309,80.777a1.923,1.923,0,1,1,1.923-1.923,1.923,1.923,0,0,1-1.923,1.923m0-15.386a1.923,1.923,0,1,1,1.923-1.923,1.923,1.923,0,0,1-1.923,1.923m0-15.386a1.923,1.923,0,1,1,1.923-1.923A1.923,1.923,0,0,1,17.309,50m0-15.386A1.923,1.923,0,1,1,19.233,32.7a1.923,1.923,0,0,1-1.923,1.923m0-15.386a1.923,1.923,0,1,1,1.923-1.923,1.923,1.923,0,0,1-1.923,1.923m0-15.386a1.923,1.923,0,1,1,1.923-1.923,1.923,1.923,0,0,1-1.923,1.923M1.923,80.777a1.923,1.923,0,1,1,1.923-1.923,1.923,1.923,0,0,1-1.923,1.923m0-15.386a1.923,1.923,0,1,1,1.923-1.923,1.923,1.923,0,0,1-1.923,1.923M1.923,50a1.923,1.923,0,1,1,1.923-1.923A1.923,1.923,0,0,1,1.923,50m0-15.386A1.923,1.923,0,1,1,3.847,32.7a1.923,1.923,0,0,1-1.923,1.923m0-15.386a1.923,1.923,0,1,1,1.923-1.923,1.923,1.923,0,0,1-1.923,1.923m0-15.386A1.923,1.923,0,1,1,3.847,1.923,1.923,1.923,0,0,1,1.923,3.847" transform="translate(-0.418 -0.371)" fill="#fff"></path>
      </g>
    </g>
  </g>
</svg>
