<?xml version="1.0" encoding="UTF-8"?>
<svg xmlns="http://www.w3.org/2000/svg" xmlns:xlink="http://www.w3.org/1999/xlink" width="425" height="87" viewBox="0 0 425 87">
  <defs>
    <clipPath id="clip-path">
      <rect id="Rectangle_1387" data-name="Rectangle 1387" width="87" height="202" transform="translate(0.5 0)" fill="#fff"></rect>
    </clipPath>
    <clipPath id="clip-path-2">
      <rect id="Rectangle_1387-2" data-name="Rectangle 1387" width="87" height="199" transform="translate(0.5 0.107)" fill="#fff"></rect>
    </clipPath>
  </defs>
  <g id="Group_1631" data-name="Group 1631" transform="translate(-1218 -2715)">
    <g id="Group_29" data-name="Group 29" transform="translate(1218 2802.5) rotate(-90)" opacity="0.268">
      <g id="Group_28" data-name="Group 28" transform="translate(0 0)" clip-path="url(#clip-path)">
        <path id="Path_209" data-name="Path 209" d="M86.041,195.981a4.78,4.78,0,1,0-4.78,4.78,4.78,4.78,0,0,0,4.78-4.78m-4.78-33.46a4.78,4.78,0,1,1,4.78-4.78,4.78,4.78,0,0,1-4.78,4.78m0-38.24a4.78,4.78,0,1,1,4.78-4.78,4.78,4.78,0,0,1-4.78,4.78m0-38.24a4.78,4.78,0,1,1,4.78-4.78,4.78,4.78,0,0,1-4.78,4.78m0-38.24a4.78,4.78,0,1,1,4.78-4.78,4.78,4.78,0,0,1-4.78,4.78m0-38.24a4.78,4.78,0,1,1,4.78-4.78,4.78,4.78,0,0,1-4.78,4.78m-38.24,191.2a4.78,4.78,0,1,1,4.78-4.78,4.78,4.78,0,0,1-4.78,4.78m0-38.24a4.78,4.78,0,1,1,4.78-4.78,4.78,4.78,0,0,1-4.78,4.78m0-38.24a4.78,4.78,0,1,1,4.78-4.78,4.78,4.78,0,0,1-4.78,4.78m0-38.24a4.78,4.78,0,1,1,4.78-4.78,4.78,4.78,0,0,1-4.78,4.78m0-38.24a4.78,4.78,0,1,1,4.78-4.78,4.78,4.78,0,0,1-4.78,4.78m0-38.24A4.78,4.78,0,1,1,47.8,4.78a4.78,4.78,0,0,1-4.78,4.78M4.78,200.761a4.78,4.78,0,1,1,4.78-4.78,4.78,4.78,0,0,1-4.78,4.78m0-38.24a4.78,4.78,0,1,1,4.78-4.78,4.78,4.78,0,0,1-4.78,4.78m0-38.24a4.78,4.78,0,1,1,4.78-4.78,4.78,4.78,0,0,1-4.78,4.78m0-38.24a4.78,4.78,0,1,1,4.78-4.78,4.78,4.78,0,0,1-4.78,4.78m0-38.24a4.78,4.78,0,1,1,4.78-4.78A4.78,4.78,0,0,1,4.78,47.8m0-38.24A4.78,4.78,0,1,1,9.56,4.78,4.78,4.78,0,0,1,4.78,9.56" transform="translate(0 -0.312)" fill="#fff"></path>
      </g>
    </g>
    <g id="Group_30" data-name="Group 30" transform="translate(1443.893 2802.5) rotate(-90)" opacity="0.268">
      <g id="Group_28-2" data-name="Group 28" transform="translate(0 0)" clip-path="url(#clip-path-2)">
        <path id="Path_209-2" data-name="Path 209" d="M86.041,195.981a4.78,4.78,0,1,0-4.78,4.78,4.78,4.78,0,0,0,4.78-4.78m-4.78-33.46a4.78,4.78,0,1,1,4.78-4.78,4.78,4.78,0,0,1-4.78,4.78m0-38.24a4.78,4.78,0,1,1,4.78-4.78,4.78,4.78,0,0,1-4.78,4.78m0-38.24a4.78,4.78,0,1,1,4.78-4.78,4.78,4.78,0,0,1-4.78,4.78m0-38.24a4.78,4.78,0,1,1,4.78-4.78,4.78,4.78,0,0,1-4.78,4.78m0-38.24a4.78,4.78,0,1,1,4.78-4.78,4.78,4.78,0,0,1-4.78,4.78m-38.24,191.2a4.78,4.78,0,1,1,4.78-4.78,4.78,4.78,0,0,1-4.78,4.78m0-38.24a4.78,4.78,0,1,1,4.78-4.78,4.78,4.78,0,0,1-4.78,4.78m0-38.24a4.78,4.78,0,1,1,4.78-4.78,4.78,4.78,0,0,1-4.78,4.78m0-38.24a4.78,4.78,0,1,1,4.78-4.78,4.78,4.78,0,0,1-4.78,4.78m0-38.24a4.78,4.78,0,1,1,4.78-4.78,4.78,4.78,0,0,1-4.78,4.78m0-38.24A4.78,4.78,0,1,1,47.8,4.78a4.78,4.78,0,0,1-4.78,4.78M4.78,200.761a4.78,4.78,0,1,1,4.78-4.78,4.78,4.78,0,0,1-4.78,4.78m0-38.24a4.78,4.78,0,1,1,4.78-4.78,4.78,4.78,0,0,1-4.78,4.78m0-38.24a4.78,4.78,0,1,1,4.78-4.78,4.78,4.78,0,0,1-4.78,4.78m0-38.24a4.78,4.78,0,1,1,4.78-4.78,4.78,4.78,0,0,1-4.78,4.78m0-38.24a4.78,4.78,0,1,1,4.78-4.78A4.78,4.78,0,0,1,4.78,47.8m0-38.24A4.78,4.78,0,1,1,9.56,4.78,4.78,4.78,0,0,1,4.78,9.56" transform="translate(0 -0.309)" fill="#fff"></path>
      </g>
    </g>
  </g>
</svg>
