<?xml version="1.0" encoding="UTF-8"?>
<svg xmlns="http://www.w3.org/2000/svg" version="1.2" viewBox="0 0 1923 942" width="1923" height="942">
  <title>hero-bg-svg</title>
  <defs>
    <clipPath id="cp1">
      <path d="m242 236.11v-71h166v71z"></path>
    </clipPath>
    <clipPath id="cp2">
      <path d="m428 236.11v-71h163v71z"></path>
    </clipPath>
    <clipPath id="cp3">
      <path d="m1781 201.11h71v166h-71z"></path>
    </clipPath>
    <clipPath id="cp4">
      <path d="m1781 387.11h71v163h-71z"></path>
    </clipPath>
  </defs>
  <style>
		.s0 { fill: #df5928 } 
		.s1 { fill: #3c3c3c } 
		.s2 { fill: #ffffff } 
	</style>
  <g id="Group_1680">
    <path id="Path_214" class="s0" d="m3 941.8v-1529.8h67l881.9 1529.8z"></path>
    <path id="Path_213" class="s1" d="m2.7-0.9h1920v655.7l-1922.7 131.4z"></path>
    <g id="Group_1636">
      <g id="Group_29" style="opacity: .1">
        <g id="Clip-Path: Group_28" clip-path="url(#cp1)">
          <g id="Group_28">
            <path id="Path_209" fill-rule="evenodd" class="s2" d="m404.2 166.6q0.7 0.3 1.3 0.9 0.5 0.5 0.8 1.2 0.3 0.8 0.3 1.5c0 1.6-1 3.1-2.4 3.7-1.5 0.6-3.2 0.2-4.3-0.9-1.1-1.1-1.5-2.8-0.8-4.3 0.6-1.4 2-2.4 3.6-2.4q0.8 0 1.5 0.3zm-29 3.6c0 1.6-1 3.1-2.4 3.7-1.5 0.6-3.2 0.2-4.3-0.9-1.1-1.1-1.5-2.8-0.8-4.3 0.6-1.4 2-2.4 3.6-2.4q0.8 0 1.5 0.3 0.7 0.3 1.3 0.9 0.5 0.5 0.8 1.2 0.3 0.8 0.3 1.5zm-31.4 0c0 1.6-1 3.1-2.4 3.7-1.5 0.6-3.2 0.2-4.3-0.9-1.1-1.1-1.5-2.8-0.8-4.3 0.6-1.4 2-2.4 3.6-2.4q0.8 0 1.5 0.3 0.7 0.3 1.3 0.9 0.5 0.5 0.8 1.2 0.3 0.8 0.3 1.5zm-31.4 0c0 1.6-1 3.1-2.4 3.7-1.5 0.6-3.2 0.2-4.3-0.9-1.1-1.1-1.5-2.8-0.8-4.3 0.6-1.4 2-2.4 3.6-2.4q0.8 0 1.5 0.3 0.7 0.3 1.3 0.9 0.5 0.5 0.8 1.2 0.3 0.8 0.3 1.5zm-31.4 0c0 1.6-1 3.1-2.4 3.7-1.5 0.6-3.2 0.2-4.3-0.9-1.1-1.1-1.5-2.8-0.8-4.3 0.6-1.4 2-2.4 3.6-2.4q0.8 0 1.5 0.3 0.7 0.3 1.3 0.9 0.5 0.5 0.8 1.2 0.3 0.8 0.3 1.5zm-31.4 0c0 1.6-1 3.1-2.4 3.7-1.5 0.6-3.2 0.2-4.3-0.9-1.1-1.1-1.5-2.8-0.8-4.3 0.6-1.4 2-2.4 3.6-2.4q0.8 0 1.5 0.3 0.7 0.3 1.3 0.9 0.5 0.5 0.8 1.2 0.3 0.8 0.3 1.5zm157 31.4c0 1.6-0.9 3.1-2.4 3.7-1.5 0.6-3.2 0.2-4.3-0.9-1.1-1.1-1.4-2.8-0.8-4.3 0.6-1.4 2-2.4 3.6-2.4q0.8 0 1.5 0.3 0.7 0.3 1.3 0.9 0.5 0.5 0.8 1.2 0.3 0.8 0.3 1.5zm-31.4 0c0 1.6-0.9 3.1-2.4 3.7-1.5 0.6-3.2 0.2-4.3-0.9-1.1-1.1-1.4-2.8-0.8-4.3 0.6-1.4 2-2.4 3.6-2.4q0.8 0 1.5 0.3 0.7 0.3 1.3 0.9 0.5 0.5 0.8 1.2 0.3 0.8 0.3 1.5zm-31.4 0c0 1.6-0.9 3.1-2.4 3.7-1.5 0.6-3.2 0.2-4.3-0.9-1.1-1.1-1.4-2.8-0.8-4.3 0.6-1.4 2-2.4 3.6-2.4q0.8 0 1.5 0.3 0.7 0.3 1.3 0.9 0.5 0.5 0.8 1.2 0.3 0.8 0.3 1.5zm-31.4 0c0 1.6-0.9 3.1-2.4 3.7-1.5 0.6-3.2 0.2-4.3-0.9-1.1-1.1-1.4-2.8-0.8-4.3 0.6-1.4 2-2.4 3.6-2.4q0.8 0 1.5 0.3 0.7 0.3 1.3 0.9 0.5 0.5 0.8 1.2 0.3 0.8 0.3 1.5zm-31.4 0c0 1.6-0.9 3.1-2.4 3.7-1.5 0.6-3.2 0.2-4.3-0.9-1.1-1.1-1.4-2.8-0.8-4.3 0.6-1.4 2-2.4 3.6-2.4q0.8 0 1.5 0.3 0.7 0.3 1.3 0.9 0.5 0.5 0.8 1.2 0.3 0.8 0.3 1.5zm-31.4 0c0 1.6-0.9 3.1-2.4 3.7-1.5 0.6-3.2 0.2-4.3-0.9-1.1-1.1-1.4-2.8-0.8-4.3 0.6-1.4 2-2.4 3.6-2.4q0.8 0 1.5 0.3 0.7 0.3 1.3 0.9 0.5 0.5 0.8 1.2 0.3 0.8 0.3 1.5zm157 31.4c0 1.6-0.9 3.1-2.4 3.7-1.5 0.6-3.2 0.2-4.3-0.9-1.1-1.1-1.4-2.8-0.8-4.3 0.6-1.4 2-2.4 3.6-2.4q0.8 0 1.5 0.3 0.7 0.3 1.3 0.9 0.5 0.5 0.8 1.2 0.3 0.8 0.3 1.5zm-31.4 0c0 1.6-0.9 3.1-2.4 3.7-1.5 0.6-3.2 0.2-4.3-0.9-1.1-1.1-1.4-2.8-0.8-4.3 0.6-1.4 2-2.4 3.6-2.4q0.8 0 1.5 0.3 0.7 0.3 1.3 0.9 0.5 0.5 0.8 1.2 0.3 0.8 0.3 1.5zm-31.4 0c0 1.6-0.9 3.1-2.4 3.7-1.5 0.6-3.2 0.2-4.3-0.9-1.1-1.1-1.4-2.8-0.8-4.3 0.6-1.4 2-2.4 3.6-2.4q0.8 0 1.5 0.3 0.7 0.3 1.3 0.9 0.5 0.5 0.8 1.2 0.3 0.8 0.3 1.5zm-31.4 0c0 1.6-0.9 3.1-2.4 3.7-1.5 0.6-3.2 0.2-4.3-0.9-1.1-1.1-1.4-2.8-0.8-4.3 0.6-1.4 2-2.4 3.6-2.4q0.8 0 1.5 0.3 0.7 0.3 1.3 0.9 0.5 0.5 0.8 1.2 0.3 0.8 0.3 1.5zm-31.4 0c0 1.6-0.9 3.1-2.4 3.7-1.5 0.6-3.2 0.2-4.3-0.9-1.1-1.1-1.4-2.8-0.8-4.3 0.6-1.4 2-2.4 3.6-2.4q0.8 0 1.5 0.3 0.7 0.3 1.3 0.9 0.5 0.5 0.8 1.2 0.3 0.8 0.3 1.5zm-31.4 0c0 1.6-0.9 3.1-2.4 3.7-1.5 0.6-3.1 0.2-4.3-0.9-1.1-1.1-1.4-2.8-0.8-4.2 0.6-1.5 2-2.5 3.6-2.5q0.7 0 1.5 0.3 0.7 0.3 1.2 0.9 0.6 0.5 0.9 1.2 0.3 0.8 0.3 1.5z"></path>
          </g>
        </g>
      </g>
      <g id="Group_30" style="opacity: .1">
        <g id="Clip-Path: Group_28-2" clip-path="url(#cp2)">
          <g id="Group_28-2">
            <path id="Path_209-2" fill-rule="evenodd" class="s2" d="m589.7 166.6q0.7 0.3 1.3 0.9 0.5 0.5 0.8 1.2 0.3 0.8 0.3 1.5c0 1.6-1 3.1-2.4 3.7-1.5 0.6-3.2 0.2-4.3-0.9-1.1-1.1-1.5-2.8-0.8-4.3 0.6-1.4 2-2.4 3.6-2.4q0.8 0 1.5 0.3zm-29 3.6c0 1.6-1 3.1-2.4 3.7-1.5 0.6-3.2 0.2-4.3-0.9-1.1-1.1-1.5-2.8-0.8-4.3 0.6-1.4 2-2.4 3.6-2.4q0.8 0 1.5 0.3 0.7 0.3 1.3 0.9 0.5 0.5 0.8 1.2 0.3 0.8 0.3 1.5zm-31.4 0c0 1.6-1 3.1-2.4 3.7-1.5 0.6-3.2 0.2-4.3-0.9-1.1-1.1-1.5-2.8-0.8-4.3 0.6-1.4 2-2.4 3.6-2.4q0.8 0 1.5 0.3 0.7 0.3 1.3 0.9 0.5 0.5 0.8 1.2 0.3 0.8 0.3 1.5zm-31.4 0c0 1.6-1 3.1-2.4 3.7-1.5 0.6-3.2 0.2-4.3-0.9-1.1-1.1-1.5-2.8-0.8-4.3 0.6-1.4 2-2.4 3.6-2.4q0.8 0 1.5 0.3 0.7 0.3 1.3 0.9 0.5 0.5 0.8 1.2 0.3 0.8 0.3 1.5zm-31.4 0c0 1.6-1 3.1-2.4 3.7-1.5 0.6-3.2 0.2-4.3-0.9-1.1-1.1-1.5-2.8-0.8-4.3 0.6-1.4 2-2.4 3.6-2.4q0.8 0 1.5 0.3 0.7 0.3 1.3 0.9 0.5 0.5 0.8 1.2 0.3 0.8 0.3 1.5zm-31.4 0c0 1.6-1 3.1-2.4 3.7-1.5 0.6-3.2 0.2-4.3-0.9-1.1-1.1-1.5-2.8-0.8-4.3 0.6-1.4 2-2.4 3.6-2.4q0.8 0 1.5 0.3 0.7 0.3 1.3 0.9 0.5 0.5 0.8 1.2 0.3 0.8 0.3 1.5zm157 31.4c0 1.6-0.9 3.1-2.4 3.7-1.5 0.6-3.2 0.2-4.3-0.9-1.1-1.1-1.4-2.8-0.8-4.3 0.6-1.4 2-2.4 3.6-2.4q0.8 0 1.5 0.3 0.7 0.3 1.3 0.9 0.5 0.5 0.8 1.2 0.3 0.8 0.3 1.5zm-31.4 0c0 1.6-0.9 3.1-2.4 3.7-1.5 0.6-3.2 0.2-4.3-0.9-1.1-1.1-1.4-2.8-0.8-4.3 0.6-1.4 2-2.4 3.6-2.4q0.8 0 1.5 0.3 0.7 0.3 1.3 0.9 0.5 0.5 0.8 1.2 0.3 0.8 0.3 1.5zm-31.4 0c0 1.6-0.9 3.1-2.4 3.7-1.5 0.6-3.2 0.2-4.3-0.9-1.1-1.1-1.4-2.8-0.8-4.3 0.6-1.4 2-2.4 3.6-2.4q0.8 0 1.5 0.3 0.7 0.3 1.3 0.9 0.5 0.5 0.8 1.2 0.3 0.8 0.3 1.5zm-31.4 0c0 1.6-0.9 3.1-2.4 3.7-1.5 0.6-3.2 0.2-4.3-0.9-1.1-1.1-1.4-2.8-0.8-4.3 0.6-1.4 2-2.4 3.6-2.4q0.8 0 1.5 0.3 0.7 0.3 1.3 0.9 0.5 0.5 0.8 1.2 0.3 0.8 0.3 1.5zm-31.4 0c0 1.6-0.9 3.1-2.4 3.7-1.5 0.6-3.2 0.2-4.3-0.9-1.1-1.1-1.4-2.8-0.8-4.3 0.6-1.4 2-2.4 3.6-2.4q0.8 0 1.5 0.3 0.7 0.3 1.3 0.9 0.5 0.5 0.8 1.2 0.3 0.8 0.3 1.5zm-31.4 0c0 1.6-0.9 3.1-2.4 3.7-1.5 0.6-3.2 0.2-4.3-0.9-1.1-1.1-1.4-2.8-0.8-4.3 0.6-1.4 2-2.4 3.6-2.4q0.8 0 1.5 0.3 0.7 0.3 1.3 0.9 0.5 0.5 0.8 1.2 0.3 0.8 0.3 1.5zm157 31.4c0 1.6-0.9 3.1-2.4 3.7-1.5 0.6-3.2 0.2-4.3-0.9-1.1-1.1-1.4-2.8-0.8-4.3 0.6-1.4 2-2.4 3.6-2.4q0.8 0 1.5 0.3 0.7 0.3 1.3 0.9 0.5 0.5 0.8 1.2 0.3 0.8 0.3 1.5zm-31.4 0c0 1.6-0.9 3.1-2.4 3.7-1.5 0.6-3.2 0.2-4.3-0.9-1.1-1.1-1.4-2.8-0.8-4.3 0.6-1.4 2-2.4 3.6-2.4q0.8 0 1.5 0.3 0.7 0.3 1.3 0.9 0.5 0.5 0.8 1.2 0.3 0.8 0.3 1.5zm-31.4 0c0 1.6-0.9 3.1-2.4 3.7-1.5 0.6-3.2 0.2-4.3-0.9-1.1-1.1-1.4-2.8-0.8-4.3 0.6-1.4 2-2.4 3.6-2.4q0.8 0 1.5 0.3 0.7 0.3 1.3 0.9 0.5 0.5 0.8 1.2 0.3 0.8 0.3 1.5zm-31.4 0c0 1.6-0.9 3.1-2.4 3.7-1.5 0.6-3.2 0.2-4.3-0.9-1.1-1.1-1.4-2.8-0.8-4.3 0.6-1.4 2-2.4 3.6-2.4q0.8 0 1.5 0.3 0.7 0.3 1.3 0.9 0.5 0.5 0.8 1.2 0.3 0.8 0.3 1.5zm-31.4 0c0 1.6-0.9 3.1-2.4 3.7-1.5 0.6-3.2 0.2-4.3-0.9-1.1-1.1-1.4-2.8-0.8-4.3 0.6-1.4 2-2.4 3.6-2.4q0.8 0 1.5 0.3 0.7 0.3 1.3 0.9 0.5 0.5 0.8 1.2 0.3 0.8 0.3 1.5zm-31.4 0c0 1.6-0.9 3.1-2.4 3.7-1.5 0.6-3.1 0.2-4.3-0.9-1.1-1.1-1.4-2.8-0.8-4.2 0.6-1.5 2-2.5 3.6-2.5q0.7 0 1.5 0.3 0.7 0.3 1.2 0.9 0.6 0.5 0.9 1.2 0.3 0.8 0.3 1.5z"></path>
          </g>
        </g>
      </g>
    </g>
    <g id="Group_1637">
      <g id="Group_29-2" style="opacity: .1">
        <g id="Clip-Path: Group_28-3" clip-path="url(#cp3)">
          <g id="Group_28-3">
            <path id="Path_209-3" fill-rule="evenodd" class="s2" d="m1850.5 363.3q-0.3 0.7-0.8 1.3-0.6 0.5-1.3 0.8-0.7 0.3-1.5 0.3c-1.6 0-3-0.9-3.6-2.4-0.7-1.5-0.3-3.2 0.8-4.3 1.1-1.1 2.8-1.4 4.3-0.8 1.4 0.6 2.4 2 2.4 3.6q0 0.8-0.3 1.5zm-3.6-29c-1.6 0-3-0.9-3.6-2.4-0.7-1.5-0.3-3.2 0.8-4.3 1.1-1.1 2.8-1.4 4.3-0.8 1.4 0.6 2.4 2 2.4 3.6q0 0.8-0.3 1.5-0.3 0.7-0.8 1.3-0.6 0.5-1.3 0.8-0.7 0.3-1.5 0.3zm0-31.4c-1.6 0-3-0.9-3.6-2.4-0.7-1.5-0.3-3.2 0.8-4.3 1.1-1.1 2.8-1.4 4.3-0.8 1.4 0.6 2.4 2 2.4 3.6q0 0.8-0.3 1.5-0.3 0.7-0.8 1.3-0.6 0.5-1.3 0.8-0.7 0.3-1.5 0.3zm0-31.4c-1.6 0-3-0.9-3.6-2.4-0.7-1.5-0.3-3.2 0.8-4.3 1.1-1.1 2.8-1.4 4.3-0.8 1.4 0.6 2.4 2 2.4 3.6q0 0.8-0.3 1.5-0.3 0.7-0.8 1.3-0.6 0.5-1.3 0.8-0.7 0.3-1.5 0.3zm0-31.4c-1.6 0-3-0.9-3.6-2.4-0.7-1.5-0.3-3.2 0.8-4.3 1.1-1.1 2.8-1.4 4.3-0.8 1.4 0.6 2.4 2 2.4 3.6q0 0.8-0.3 1.5-0.3 0.7-0.8 1.3-0.6 0.5-1.3 0.8-0.7 0.3-1.5 0.3zm0-31.4c-1.6 0-3-0.9-3.6-2.4-0.7-1.5-0.3-3.2 0.8-4.3 1.1-1.1 2.8-1.4 4.3-0.8 1.4 0.6 2.4 2 2.4 3.6q0 0.8-0.3 1.5-0.3 0.7-0.8 1.3-0.6 0.5-1.3 0.8-0.7 0.3-1.5 0.3zm-31.4 157c-1.6 0-3-0.9-3.6-2.4-0.7-1.5-0.3-3.2 0.8-4.3 1.1-1.1 2.8-1.4 4.3-0.8 1.4 0.6 2.4 2 2.4 3.6q0 0.8-0.3 1.5-0.3 0.7-0.8 1.3-0.6 0.5-1.3 0.8-0.7 0.3-1.5 0.3zm0-31.4c-1.6 0-3-0.9-3.6-2.4-0.7-1.5-0.3-3.2 0.8-4.3 1.1-1.1 2.8-1.4 4.3-0.8 1.4 0.6 2.4 2 2.4 3.6q0 0.8-0.3 1.5-0.3 0.7-0.8 1.3-0.6 0.5-1.3 0.8-0.7 0.3-1.5 0.3zm0-31.4c-1.6 0-3-0.9-3.6-2.4-0.7-1.5-0.3-3.2 0.8-4.3 1.1-1.1 2.8-1.4 4.3-0.8 1.4 0.6 2.4 2 2.4 3.6q0 0.8-0.3 1.5-0.3 0.7-0.8 1.3-0.6 0.5-1.3 0.8-0.7 0.3-1.5 0.3zm0-31.4c-1.6 0-3-0.9-3.6-2.4-0.7-1.5-0.3-3.2 0.8-4.3 1.1-1.1 2.8-1.4 4.3-0.8 1.4 0.6 2.4 2 2.4 3.6q0 0.8-0.3 1.5-0.3 0.7-0.8 1.3-0.6 0.5-1.3 0.8-0.7 0.3-1.5 0.3zm0-31.4c-1.6 0-3-0.9-3.6-2.4-0.7-1.5-0.3-3.2 0.8-4.3 1.1-1.1 2.8-1.4 4.3-0.8 1.4 0.6 2.4 2 2.4 3.6q0 0.8-0.3 1.5-0.3 0.7-0.8 1.3-0.6 0.5-1.3 0.8-0.7 0.3-1.5 0.3zm0-31.4c-1.6 0-3-0.9-3.6-2.4-0.7-1.5-0.3-3.2 0.8-4.3 1.1-1.1 2.8-1.4 4.3-0.8 1.4 0.6 2.4 2 2.4 3.6q0 0.8-0.3 1.5-0.3 0.7-0.8 1.3-0.6 0.5-1.3 0.8-0.7 0.3-1.5 0.3zm-31.4 157c-1.6 0-3-0.9-3.6-2.4-0.7-1.5-0.3-3.1 0.8-4.3 1.1-1.1 2.8-1.4 4.3-0.8 1.4 0.6 2.4 2 2.4 3.6q0 0.8-0.3 1.5-0.3 0.7-0.8 1.3-0.6 0.5-1.3 0.8-0.7 0.3-1.5 0.3zm0-31.4c-1.6 0-3-0.9-3.6-2.4-0.7-1.5-0.3-3.1 0.8-4.3 1.1-1.1 2.8-1.4 4.3-0.8 1.4 0.6 2.4 2 2.4 3.6q0 0.8-0.3 1.5-0.3 0.7-0.8 1.3-0.6 0.5-1.3 0.8-0.7 0.3-1.5 0.3zm0-31.4c-1.6 0-3-0.9-3.6-2.4-0.7-1.5-0.3-3.1 0.8-4.3 1.1-1.1 2.8-1.4 4.3-0.8 1.4 0.6 2.4 2 2.4 3.6q0 0.8-0.3 1.5-0.3 0.7-0.8 1.3-0.6 0.5-1.3 0.8-0.7 0.3-1.5 0.3zm0-31.4c-1.6 0-3-0.9-3.6-2.4-0.7-1.5-0.3-3.1 0.8-4.3 1.1-1.1 2.8-1.4 4.3-0.8 1.4 0.6 2.4 2 2.4 3.6q0 0.8-0.3 1.5-0.3 0.7-0.8 1.3-0.6 0.5-1.3 0.8-0.7 0.3-1.5 0.3zm0-31.4c-1.6 0-3-0.9-3.6-2.4-0.7-1.5-0.3-3.1 0.8-4.3 1.1-1.1 2.8-1.4 4.3-0.8 1.4 0.6 2.4 2 2.4 3.6q0 0.8-0.3 1.5-0.3 0.7-0.8 1.3-0.6 0.5-1.3 0.8-0.7 0.3-1.5 0.3zm0-31.4c-1.6 0-3-0.9-3.6-2.4-0.7-1.4-0.3-3.1 0.8-4.3 1.1-1.1 2.8-1.4 4.3-0.8 1.4 0.6 2.4 2 2.4 3.6q0 0.8-0.3 1.5-0.3 0.7-0.9 1.3-0.5 0.5-1.2 0.8-0.7 0.3-1.5 0.3z"></path>
          </g>
        </g>
      </g>
      <g id="Group_30-2" style="opacity: .1">
        <g id="Clip-Path: Group_28-4" clip-path="url(#cp4)">
          <g id="Group_28-4">
            <path id="Path_209-4" fill-rule="evenodd" class="s2" d="m1850.5 548.8q-0.3 0.7-0.8 1.3-0.6 0.5-1.3 0.8-0.7 0.3-1.5 0.3c-1.6 0-3-0.9-3.6-2.4-0.7-1.5-0.3-3.2 0.8-4.3 1.1-1.1 2.8-1.4 4.3-0.8 1.4 0.6 2.4 2 2.4 3.6q0 0.8-0.3 1.5zm-3.6-29c-1.6 0-3-0.9-3.6-2.4-0.7-1.5-0.3-3.2 0.8-4.3 1.1-1.1 2.8-1.4 4.3-0.8 1.4 0.6 2.4 2 2.4 3.6q0 0.8-0.3 1.5-0.3 0.7-0.8 1.3-0.6 0.5-1.3 0.8-0.7 0.3-1.5 0.3zm0-31.4c-1.6 0-3-0.9-3.6-2.4-0.7-1.5-0.3-3.2 0.8-4.3 1.1-1.1 2.8-1.4 4.3-0.8 1.4 0.6 2.4 2 2.4 3.6q0 0.8-0.3 1.5-0.3 0.7-0.8 1.3-0.6 0.5-1.3 0.8-0.7 0.3-1.5 0.3zm0-31.4c-1.6 0-3-0.9-3.6-2.4-0.7-1.5-0.3-3.2 0.8-4.3 1.1-1.1 2.8-1.4 4.3-0.8 1.4 0.6 2.4 2 2.4 3.6q0 0.8-0.3 1.5-0.3 0.7-0.8 1.3-0.6 0.5-1.3 0.8-0.7 0.3-1.5 0.3zm0-31.4c-1.6 0-3-0.9-3.6-2.4-0.7-1.5-0.3-3.2 0.8-4.3 1.1-1.1 2.8-1.4 4.3-0.8 1.4 0.6 2.4 2 2.4 3.6q0 0.8-0.3 1.5-0.3 0.7-0.8 1.3-0.6 0.5-1.3 0.8-0.7 0.3-1.5 0.3zm0-31.4c-1.6 0-3-0.9-3.6-2.4-0.7-1.5-0.3-3.2 0.8-4.3 1.1-1.1 2.8-1.4 4.3-0.8 1.4 0.6 2.4 2 2.4 3.6q0 0.8-0.3 1.5-0.3 0.7-0.8 1.3-0.6 0.5-1.3 0.8-0.7 0.3-1.5 0.3zm-31.4 157c-1.6 0-3-0.9-3.6-2.4-0.7-1.5-0.3-3.2 0.8-4.3 1.1-1.1 2.8-1.4 4.3-0.8 1.4 0.6 2.4 2 2.4 3.6q0 0.8-0.3 1.5-0.3 0.7-0.8 1.3-0.6 0.5-1.3 0.8-0.7 0.3-1.5 0.3zm0-31.4c-1.6 0-3-0.9-3.6-2.4-0.7-1.5-0.3-3.2 0.8-4.3 1.1-1.1 2.8-1.4 4.3-0.8 1.4 0.6 2.4 2 2.4 3.6q0 0.8-0.3 1.5-0.3 0.7-0.8 1.3-0.6 0.5-1.3 0.8-0.7 0.3-1.5 0.3zm0-31.4c-1.6 0-3-0.9-3.6-2.4-0.7-1.5-0.3-3.2 0.8-4.3 1.1-1.1 2.8-1.4 4.3-0.8 1.4 0.6 2.4 2 2.4 3.6q0 0.8-0.3 1.5-0.3 0.7-0.8 1.3-0.6 0.5-1.3 0.8-0.7 0.3-1.5 0.3zm0-31.4c-1.6 0-3-0.9-3.6-2.4-0.7-1.5-0.3-3.2 0.8-4.3 1.1-1.1 2.8-1.4 4.3-0.8 1.4 0.6 2.4 2 2.4 3.6q0 0.8-0.3 1.5-0.3 0.7-0.8 1.3-0.6 0.5-1.3 0.8-0.7 0.3-1.5 0.3zm0-31.4c-1.6 0-3-0.9-3.6-2.4-0.7-1.5-0.3-3.2 0.8-4.3 1.1-1.1 2.8-1.4 4.3-0.8 1.4 0.6 2.4 2 2.4 3.6q0 0.8-0.3 1.5-0.3 0.7-0.8 1.3-0.6 0.5-1.3 0.8-0.7 0.3-1.5 0.3zm0-31.4c-1.6 0-3-0.9-3.6-2.4-0.7-1.5-0.3-3.2 0.8-4.3 1.1-1.1 2.8-1.4 4.3-0.8 1.4 0.6 2.4 2 2.4 3.6q0 0.8-0.3 1.5-0.3 0.7-0.8 1.3-0.6 0.5-1.3 0.8-0.7 0.3-1.5 0.3zm-31.4 157c-1.6 0-3-0.9-3.6-2.4-0.7-1.5-0.3-3.1 0.8-4.3 1.1-1.1 2.8-1.4 4.3-0.8 1.4 0.6 2.4 2 2.4 3.6q0 0.8-0.3 1.5-0.3 0.7-0.8 1.3-0.6 0.5-1.3 0.8-0.7 0.3-1.5 0.3zm0-31.4c-1.6 0-3-0.9-3.6-2.4-0.7-1.5-0.3-3.1 0.8-4.3 1.1-1.1 2.8-1.4 4.3-0.8 1.4 0.6 2.4 2 2.4 3.6q0 0.8-0.3 1.5-0.3 0.7-0.8 1.3-0.6 0.5-1.3 0.8-0.7 0.3-1.5 0.3zm0-31.4c-1.6 0-3-0.9-3.6-2.4-0.7-1.5-0.3-3.1 0.8-4.3 1.1-1.1 2.8-1.4 4.3-0.8 1.4 0.6 2.4 2 2.4 3.6q0 0.8-0.3 1.5-0.3 0.7-0.8 1.3-0.6 0.5-1.3 0.8-0.7 0.3-1.5 0.3zm0-31.4c-1.6 0-3-0.9-3.6-2.4-0.7-1.5-0.3-3.1 0.8-4.3 1.1-1.1 2.8-1.4 4.3-0.8 1.4 0.6 2.4 2 2.4 3.6q0 0.8-0.3 1.5-0.3 0.7-0.8 1.3-0.6 0.5-1.3 0.8-0.7 0.3-1.5 0.3zm0-31.4c-1.6 0-3-0.9-3.6-2.4-0.7-1.5-0.3-3.1 0.8-4.3 1.1-1.1 2.8-1.4 4.3-0.8 1.4 0.6 2.4 2 2.4 3.6q0 0.8-0.3 1.5-0.3 0.7-0.8 1.3-0.6 0.5-1.3 0.8-0.7 0.3-1.5 0.3zm0-31.4c-1.6 0-3-0.9-3.6-2.4-0.7-1.4-0.3-3.1 0.8-4.3 1.1-1.1 2.8-1.4 4.3-0.8 1.4 0.6 2.4 2 2.4 3.6q0 0.8-0.3 1.5-0.3 0.7-0.9 1.3-0.5 0.5-1.2 0.8-0.7 0.3-1.5 0.3z"></path>
          </g>
        </g>
      </g>
    </g>
  </g>
</svg>
