<?xml version="1.0" encoding="UTF-8"?>
<!-- Generator: Adobe Illustrator 27.1.1, SVG Export Plug-In . SVG Version: 6.00 Build 0)  -->
<svg xmlns="http://www.w3.org/2000/svg" xmlns:xlink="http://www.w3.org/1999/xlink" version="1.1" id="Component_50_14" x="0px" y="0px" viewBox="0 0 257 73.8" style="enable-background:new 0 0 257 73.8;" xml:space="preserve">
<style type="text/css">
	.st0{fill:#005991;}
	.st1{fill:none;stroke:#FFFFFF;stroke-width:5;stroke-linecap:round;stroke-linejoin:round;}
	.st2{fill:#FFF02D;}
	.st3{fill:#00ADEC;}
	.st4{fill:#F07032;}
	.st5{fill:#48B45D;}
	.st6{fill:#EA2938;}
	.st7{fill:#3C3C3C;}
	.st8{font-family:'Montserrat-MediumItalic';}
	.st9{font-size:11.0646px;}
	.st10{font-family:'Montserrat-SemiBoldItalic';}
</style>
<path class="st0" d="M286.4,34.3c2.1,1,4.4,1.6,6.7,1.6c3.1,0,5.2-1.1,5.2-3.6c0-2.3-1.6-3.4-5.2-4.9l-2.1-0.8  c-3.3-1.3-5.3-3.4-5.3-6.7c0-4.3,3.9-6.9,8.3-6.9c2.3,0,4.6,0.5,6.7,1.4l-0.8,2.8C298,16.4,296,16,294,16c-2.9,0-4.9,1.4-4.9,3.7  c0,1.9,0.8,3.1,4.6,4.6l2.1,0.8c3.7,1.5,5.8,3.5,5.8,7c0,4.1-3.1,6.7-8.6,6.7c-2.7,0.1-5.3-0.6-7.6-1.8L286.4,34.3z"></path>
<path class="st0" d="M309.5,13.5l0.5,3.1c2.2-2.3,5.1-3.6,7.9-3.6c6.5,0,10.6,5.1,10.6,12.7c0,7.7-5.3,13.1-12.2,13.1  c-2.1-0.1-4.1-0.6-5.9-1.5l0,13.2H307v-37H309.5z M310.4,34.3c1.9,1,4,1.5,6.2,1.5c4.9,0,8.3-4,8.3-9.7c0-6.2-2.9-10.1-7.7-10.1  c-2.6,0-5.1,1.2-6.8,3.3L310.4,34.3z"></path>
<rect x="335.2" y="13.5" class="st0" width="3.4" height="24.8"></rect>
<path class="st0" d="M349.7,13.5l0.6,3.6c1.6-1.8,5-3.9,8.2-4.1v3.5c-3.1,0.3-6.2,1.6-7.9,3.2v18.7h-3.4c0-8.3,0-16.6,0-24.8H349.7z  "></path>
<path class="st0" d="M361.2,26.1c0-7.9,4.6-13.1,11.5-13.1c6.7,0,11.3,5.1,11.3,12.7c0,7.9-4.6,13.1-11.5,13.1  C365.7,38.8,361.2,33.6,361.2,26.1z M380.4,26.1c0-6.4-3-10.3-7.9-10.3c-4.6,0-7.6,3.9-7.6,9.9c0,6.4,3,10.3,7.9,10.3  C377.4,36,380.4,32.1,380.4,26.1L380.4,26.1z"></path>
<path class="st0" d="M394,13.5h6.5v2.8h-6.3v34.2h-3.4V16.3h-4.2v-2.4l4.3-0.3v-3.1c0-4.8,3.3-8.1,8.2-8.1c1.3,0,2.7,0.3,3.9,0.7  l-0.6,2.6c-1.1-0.3-2.3-0.4-3.4-0.5c-3.3,0-5,1.9-5,5.6V13.5z"></path>
<path class="st0" d="M411.9,2.4v35.9h-3.4V2.4H411.9z"></path>
<path class="st0" d="M419.8,26.1c0-7.9,4.6-13.1,11.5-13.1c6.7,0,11.3,5.1,11.3,12.7c0,7.9-4.6,13.1-11.6,13.1  C424.4,38.8,419.8,33.6,419.8,26.1z M439,26.1c0-6.4-3-10.3-7.9-10.3c-4.6,0-7.6,3.9-7.6,9.9c0,6.4,3,10.3,7.9,10.3  C436,36,439,32.1,439,26.1L439,26.1z"></path>
<rect x="335.5" y="6.1" class="st0" width="3.1" height="2.2"></rect>
<polygon class="st1" points="472.5,38.5 465.3,26.5 479.7,26.5 "></polygon>
<polygon class="st1" points="458.2,38.5 451,26.5 465.3,26.5 "></polygon>
<polygon class="st1" points="479.7,26.5 472.5,14.5 486.9,14.5 "></polygon>
<polygon class="st1" points="451,26.5 443.8,14.5 458.2,14.5 "></polygon>
<polygon class="st1" points="472.5,14.5 465.3,26.5 479.7,26.5 "></polygon>
<polygon class="st1" points="458.2,14.5 451,26.5 465.3,26.5 "></polygon>
<polygon class="st0" points="472.5,38.5 465.3,26.5 479.7,26.5 "></polygon>
<polygon class="st2" points="458.2,38.5 451,26.5 465.3,26.5 "></polygon>
<polygon class="st3" points="479.7,26.5 472.5,14.5 486.9,14.5 "></polygon>
<polygon class="st4" points="451,26.5 443.8,14.5 458.2,14.5 "></polygon>
<polygon class="st5" points="472.5,14.5 465.3,26.5 479.7,26.5 "></polygon>
<polygon class="st6" points="458.2,14.5 451,26.5 465.3,26.5 "></polygon>
<text transform="matrix(1 0 0 1 3.9434 65.3068)" class="st7 st8 st9">An </text>
<text transform="matrix(1 0 0 1 22.5537 65.3068)" class="st7 st10 st9">Automated Handling Solution </text>
<text transform="matrix(1 0 0 1 198.2246 65.3068)" class="st7 st8 st9">Company</text>
<image style="overflow:visible;" width="197" height="41" transform="matrix(1 0 0 1 54.9483 5.1455)">
</image>
</svg>
