<?xml version="1.0" encoding="UTF-8"?>
<!-- Generator: Adobe Illustrator 27.1.1, SVG Export Plug-In . SVG Version: 6.00 Build 0)  -->
<svg xmlns="http://www.w3.org/2000/svg" xmlns:xlink="http://www.w3.org/1999/xlink" version="1.1" id="Layer_1" x="0px" y="0px" viewBox="0 0 255 67.9" style="enable-background:new 0 0 255 67.9;" xml:space="preserve">
<style type="text/css">
	.st0{fill:#3C3C3C;}
	.st1{font-family:'Montserrat-MediumItalic';}
	.st2{font-size:11px;}
	.st3{font-family:'Montserrat-SemiBoldItalic';}
	.st4{fill:#005991;}
	.st5{fill:none;stroke:#FFFFFF;stroke-width:5;stroke-linecap:round;stroke-linejoin:round;}
	.st6{fill:#FFF02D;}
	.st7{fill:#00ADEC;}
	.st8{fill:#F07032;}
	.st9{fill:#48B45D;}
	.st10{fill:#EA2938;}
	.st11{fill:none;}
</style>
<g id="Group_1965" transform="translate(255 6572.919)">
	<text transform="matrix(1 0 0 1 -254 -6508)" class="st0 st1 st2">An </text>
	<text transform="matrix(1 0 0 1 -235.4981 -6508)" class="st0 st3 st2">Automated Handling Solutions </text>
	<text transform="matrix(1 0 0 1 -55.1886 -6508)" class="st0 st1 st2">Company</text>
	<path id="Path_278" class="st4" d="M-228.4-6541.1c2.1,1,4.4,1.6,6.7,1.6c3.1,0,5.2-1.1,5.2-3.6c0-2.3-1.6-3.4-5.2-4.9l-2.1-0.8   c-3.3-1.3-5.3-3.4-5.3-6.7c0-4.3,3.9-6.9,8.3-6.9c2.3,0,4.6,0.5,6.7,1.4l-0.8,2.8c-1.9-0.8-3.9-1.2-5.9-1.2c-2.9,0-4.9,1.4-4.9,3.7   c0,1.9,0.8,3.1,4.6,4.6l2.1,0.8c3.7,1.5,5.8,3.5,5.8,7c0,4.1-3.1,6.7-8.6,6.7c-2.7,0.1-5.3-0.6-7.6-1.8L-228.4-6541.1z"></path>
	<path id="Path_279" class="st4" d="M-205.3-6561.9l0.5,3.1c2.1-2.2,4.9-3.5,7.9-3.6c6.5,0,10.6,5.1,10.6,12.7   c0,7.7-5.3,13.1-12.2,13.1c-2.1-0.1-4.1-0.6-5.9-1.5l0,13.2h-3.4v-37H-205.3z M-204.5-6541c1.9,1,4,1.5,6.2,1.5   c4.9,0,8.3-4,8.3-9.7c0-6.2-2.9-10.1-7.7-10.1c-2.6,0-5.1,1.2-6.8,3.3L-204.5-6541z"></path>
	<rect id="Rectangle_1828" x="-179.7" y="-6561.8" class="st4" width="3.4" height="24.8"></rect>
	<path id="Path_280" class="st4" d="M-165.2-6561.9l0.6,3.6c2.2-2.3,5.1-3.7,8.2-4.1v3.5c-2.9,0.2-5.6,1.3-7.9,3.2v18.7h-3.4   c0-8.3,0-16.6,0-24.8H-165.2z"></path>
	<path id="Path_281" class="st4" d="M-153.7-6549.2c0-7.9,4.6-13.1,11.5-13.1c6.7,0,11.3,5.1,11.3,12.7c0,7.9-4.6,13.1-11.5,13.1   C-149.2-6536.5-153.7-6541.7-153.7-6549.2 M-134.5-6549.2c0-6.4-3-10.3-7.9-10.3c-4.6,0-7.6,3.9-7.6,9.9c0,6.4,3,10.3,7.9,10.3   C-137.5-6539.3-134.5-6543.2-134.5-6549.2L-134.5-6549.2z"></path>
	<path id="Path_282" class="st4" d="M-120.9-6561.9h6.5v2.8h-6.3v34.2h-3.4v-34.2h-4.2v-2.4l4.3-0.3v-3.1c0-4.8,3.3-8.1,8.2-8.1   c1.3,0,2.7,0.3,3.9,0.7l-0.6,2.6c-1.1-0.3-2.3-0.4-3.4-0.5c-3.3,0-5,1.9-5,5.6L-120.9-6561.9z"></path>
	<rect id="Rectangle_1829" x="-106.4" y="-6572.9" class="st4" width="3.4" height="35.9"></rect>
	<path id="Path_283" class="st4" d="M-95-6549.2c0-7.9,4.6-13.1,11.5-13.1c6.7,0,11.3,5.1,11.3,12.7c0,7.9-4.6,13.1-11.6,13.1   C-90.5-6536.5-95-6541.7-95-6549.2 M-75.9-6549.2c0-6.4-3-10.3-7.9-10.3c-4.6,0-7.6,3.9-7.6,9.9c0,6.4,3,10.3,7.9,10.3   C-78.9-6539.3-75.9-6543.2-75.9-6549.2L-75.9-6549.2z"></path>
	<rect id="Rectangle_1830" x="-179.4" y="-6569.2" class="st4" width="3.1" height="2.2"></rect>
	<path id="Path_284" class="st5" d="M-42.4-6536.8l-7.2-12h14.3L-42.4-6536.8z"></path>
	<path id="Path_285" class="st5" d="M-56.7-6536.8l-7.2-12h14.3L-56.7-6536.8z"></path>
	<path id="Path_286" class="st5" d="M-35.2-6548.8l-7.2-12H-28L-35.2-6548.8z"></path>
	<path id="Path_287" class="st5" d="M-63.9-6548.8l-7.2-12h14.3L-63.9-6548.8z"></path>
	<path id="Path_288" class="st5" d="M-42.4-6560.8l-7.2,12h14.3L-42.4-6560.8z"></path>
	<path id="Path_289" class="st5" d="M-56.7-6560.8l-7.2,12h14.3L-56.7-6560.8z"></path>
	<path id="Path_290" class="st4" d="M-42.4-6536.8l-7.2-12h14.3L-42.4-6536.8z"></path>
	<path id="Path_291" class="st6" d="M-56.7-6536.8l-7.2-12h14.3L-56.7-6536.8z"></path>
	<path id="Path_292" class="st7" d="M-35.2-6548.8l-7.2-12H-28L-35.2-6548.8z"></path>
	<path id="Path_293" class="st8" d="M-63.9-6548.8l-7.2-12h14.3L-63.9-6548.8z"></path>
	<path id="Path_294" class="st9" d="M-42.4-6560.8l-7.2,12h14.3L-42.4-6560.8z"></path>
	<path id="Path_295" class="st10" d="M-56.7-6560.8l-7.2,12h14.3L-56.7-6560.8z"></path>
	<rect id="Rectangle_1835" x="-255" y="-6572.9" class="st11" width="250.7" height="65.8"></rect>
</g>
</svg>
