<?xml version="1.0" encoding="UTF-8"?>
<svg xmlns="http://www.w3.org/2000/svg" xmlns:xlink="http://www.w3.org/1999/xlink" width="1800" height="1145" viewBox="0 0 1800 1145">
  <defs>
    <clipPath id="clip-path">
      <rect id="Rectangle_1387" data-name="Rectangle 1387" width="73" height="170" transform="translate(0 0)" fill="#143156"></rect>
    </clipPath>
    <clipPath id="clip-path-2">
      <rect id="Rectangle_1387-2" data-name="Rectangle 1387" width="73" height="169" transform="translate(0 -0.422)" fill="#143156"></rect>
    </clipPath>
    <clipPath id="clip-path-3">
      <rect id="Rectangle_1387-3" data-name="Rectangle 1387" width="73" height="169" transform="translate(0 -0.422)" fill="#e6e6e6"></rect>
    </clipPath>
  </defs>
  <g id="Group_1677-1" data-name="Group 1677-1" transform="translate(-59 -3411)">
    <g id="Group_39" data-name="Group 39" transform="translate(847 6079) rotate(-90)">
      <g id="Group_29" data-name="Group 29" transform="translate(1523 1012) rotate(-90)" opacity="0.07">
        <g id="Group_28" data-name="Group 28" transform="translate(0 0)" clip-path="url(#clip-path)">
          <path id="Path_209" data-name="Path 209" d="M72.808,165.841a4.045,4.045,0,1,0-4.045,4.045,4.045,4.045,0,0,0,4.045-4.045m-4.045-28.314a4.045,4.045,0,1,1,4.045-4.045,4.045,4.045,0,0,1-4.045,4.045m0-32.359a4.045,4.045,0,1,1,4.045-4.045,4.045,4.045,0,0,1-4.045,4.045m0-32.359a4.045,4.045,0,1,1,4.045-4.045,4.045,4.045,0,0,1-4.045,4.045m0-32.359A4.045,4.045,0,1,1,72.808,36.4a4.045,4.045,0,0,1-4.045,4.045m0-32.359a4.045,4.045,0,1,1,4.045-4.045A4.045,4.045,0,0,1,68.763,8.09M36.4,169.886a4.045,4.045,0,1,1,4.045-4.045,4.045,4.045,0,0,1-4.045,4.045m0-32.359a4.045,4.045,0,1,1,4.045-4.045,4.045,4.045,0,0,1-4.045,4.045m0-32.359a4.045,4.045,0,1,1,4.045-4.045,4.045,4.045,0,0,1-4.045,4.045m0-32.359a4.045,4.045,0,1,1,4.045-4.045A4.045,4.045,0,0,1,36.4,72.808m0-32.359A4.045,4.045,0,1,1,40.449,36.4,4.045,4.045,0,0,1,36.4,40.449m0-32.359a4.045,4.045,0,1,1,4.045-4.045A4.045,4.045,0,0,1,36.4,8.09M4.045,169.886a4.045,4.045,0,1,1,4.045-4.045,4.045,4.045,0,0,1-4.045,4.045m0-32.359a4.045,4.045,0,1,1,4.045-4.045,4.045,4.045,0,0,1-4.045,4.045m0-32.359a4.045,4.045,0,1,1,4.045-4.045,4.045,4.045,0,0,1-4.045,4.045m0-32.359A4.045,4.045,0,1,1,8.09,68.763a4.045,4.045,0,0,1-4.045,4.045m0-32.359A4.045,4.045,0,1,1,8.09,36.4a4.045,4.045,0,0,1-4.045,4.045m0-32.359A4.045,4.045,0,1,1,8.09,4.045,4.045,4.045,0,0,1,4.045,8.09" transform="translate(0 -0.268)" fill="#143156"></path>
        </g>
      </g>
      <g id="Group_30" data-name="Group 30" transform="translate(1714.422 1012) rotate(-90)" opacity="0.07">
        <g id="Group_28-2" data-name="Group 28" transform="translate(0 0)" clip-path="url(#clip-path-2)">
          <path id="Path_209-2" data-name="Path 209" d="M72.808,165.841a4.045,4.045,0,1,0-4.045,4.045,4.045,4.045,0,0,0,4.045-4.045m-4.045-28.314a4.045,4.045,0,1,1,4.045-4.045,4.045,4.045,0,0,1-4.045,4.045m0-32.359a4.045,4.045,0,1,1,4.045-4.045,4.045,4.045,0,0,1-4.045,4.045m0-32.359a4.045,4.045,0,1,1,4.045-4.045,4.045,4.045,0,0,1-4.045,4.045m0-32.359A4.045,4.045,0,1,1,72.808,36.4a4.045,4.045,0,0,1-4.045,4.045m0-32.359a4.045,4.045,0,1,1,4.045-4.045A4.045,4.045,0,0,1,68.763,8.09M36.4,169.886a4.045,4.045,0,1,1,4.045-4.045,4.045,4.045,0,0,1-4.045,4.045m0-32.359a4.045,4.045,0,1,1,4.045-4.045,4.045,4.045,0,0,1-4.045,4.045m0-32.359a4.045,4.045,0,1,1,4.045-4.045,4.045,4.045,0,0,1-4.045,4.045m0-32.359a4.045,4.045,0,1,1,4.045-4.045A4.045,4.045,0,0,1,36.4,72.808m0-32.359A4.045,4.045,0,1,1,40.449,36.4,4.045,4.045,0,0,1,36.4,40.449m0-32.359a4.045,4.045,0,1,1,4.045-4.045A4.045,4.045,0,0,1,36.4,8.09M4.045,169.886a4.045,4.045,0,1,1,4.045-4.045,4.045,4.045,0,0,1-4.045,4.045m0-32.359a4.045,4.045,0,1,1,4.045-4.045,4.045,4.045,0,0,1-4.045,4.045m0-32.359a4.045,4.045,0,1,1,4.045-4.045,4.045,4.045,0,0,1-4.045,4.045m0-32.359A4.045,4.045,0,1,1,8.09,68.763a4.045,4.045,0,0,1-4.045,4.045m0-32.359A4.045,4.045,0,1,1,8.09,36.4a4.045,4.045,0,0,1-4.045,4.045m0-32.359A4.045,4.045,0,1,1,8.09,4.045,4.045,4.045,0,0,1,4.045,8.09" transform="translate(0 -0.536)" fill="#143156"></path>
        </g>
      </g>
    </g>
    <g id="Group_1634" data-name="Group 1634" transform="translate(132 4249.944) rotate(180)" opacity="0.609">
      <g id="Group_28-3" data-name="Group 28" transform="translate(0 0)" clip-path="url(#clip-path-3)">
        <path id="Path_209-3" data-name="Path 209" d="M72.808,165.841a4.045,4.045,0,1,0-4.045,4.045,4.045,4.045,0,0,0,4.045-4.045m-4.045-28.314a4.045,4.045,0,1,1,4.045-4.045,4.045,4.045,0,0,1-4.045,4.045m0-32.359a4.045,4.045,0,1,1,4.045-4.045,4.045,4.045,0,0,1-4.045,4.045m0-32.359a4.045,4.045,0,1,1,4.045-4.045,4.045,4.045,0,0,1-4.045,4.045m0-32.359A4.045,4.045,0,1,1,72.808,36.4a4.045,4.045,0,0,1-4.045,4.045m0-32.359a4.045,4.045,0,1,1,4.045-4.045A4.045,4.045,0,0,1,68.763,8.09M36.4,169.886a4.045,4.045,0,1,1,4.045-4.045,4.045,4.045,0,0,1-4.045,4.045m0-32.359a4.045,4.045,0,1,1,4.045-4.045,4.045,4.045,0,0,1-4.045,4.045m0-32.359a4.045,4.045,0,1,1,4.045-4.045,4.045,4.045,0,0,1-4.045,4.045m0-32.359a4.045,4.045,0,1,1,4.045-4.045A4.045,4.045,0,0,1,36.4,72.808m0-32.359A4.045,4.045,0,1,1,40.449,36.4,4.045,4.045,0,0,1,36.4,40.449m0-32.359a4.045,4.045,0,1,1,4.045-4.045A4.045,4.045,0,0,1,36.4,8.09M4.045,169.886a4.045,4.045,0,1,1,4.045-4.045,4.045,4.045,0,0,1-4.045,4.045m0-32.359a4.045,4.045,0,1,1,4.045-4.045,4.045,4.045,0,0,1-4.045,4.045m0-32.359a4.045,4.045,0,1,1,4.045-4.045,4.045,4.045,0,0,1-4.045,4.045m0-32.359A4.045,4.045,0,1,1,8.09,68.763a4.045,4.045,0,0,1-4.045,4.045m0-32.359A4.045,4.045,0,1,1,8.09,36.4a4.045,4.045,0,0,1-4.045,4.045m0-32.359A4.045,4.045,0,1,1,8.09,4.045,4.045,4.045,0,0,1,4.045,8.09" transform="translate(0 -0.536)" fill="#e6e6e6"></path>
      </g>
    </g>
    <g id="Group_1669" data-name="Group 1669" transform="translate(176 3579.578) rotate(180)" opacity="0.609">
      <g id="Group_28-4" data-name="Group 28" transform="translate(0 0)" clip-path="url(#clip-path-3)">
        <path id="Path_209-4" data-name="Path 209" d="M72.808,165.841a4.045,4.045,0,1,0-4.045,4.045,4.045,4.045,0,0,0,4.045-4.045m-4.045-28.314a4.045,4.045,0,1,1,4.045-4.045,4.045,4.045,0,0,1-4.045,4.045m0-32.359a4.045,4.045,0,1,1,4.045-4.045,4.045,4.045,0,0,1-4.045,4.045m0-32.359a4.045,4.045,0,1,1,4.045-4.045,4.045,4.045,0,0,1-4.045,4.045m0-32.359A4.045,4.045,0,1,1,72.808,36.4a4.045,4.045,0,0,1-4.045,4.045m0-32.359a4.045,4.045,0,1,1,4.045-4.045A4.045,4.045,0,0,1,68.763,8.09M36.4,169.886a4.045,4.045,0,1,1,4.045-4.045,4.045,4.045,0,0,1-4.045,4.045m0-32.359a4.045,4.045,0,1,1,4.045-4.045,4.045,4.045,0,0,1-4.045,4.045m0-32.359a4.045,4.045,0,1,1,4.045-4.045,4.045,4.045,0,0,1-4.045,4.045m0-32.359a4.045,4.045,0,1,1,4.045-4.045A4.045,4.045,0,0,1,36.4,72.808m0-32.359A4.045,4.045,0,1,1,40.449,36.4,4.045,4.045,0,0,1,36.4,40.449m0-32.359a4.045,4.045,0,1,1,4.045-4.045A4.045,4.045,0,0,1,36.4,8.09M4.045,169.886a4.045,4.045,0,1,1,4.045-4.045,4.045,4.045,0,0,1-4.045,4.045m0-32.359a4.045,4.045,0,1,1,4.045-4.045,4.045,4.045,0,0,1-4.045,4.045m0-32.359a4.045,4.045,0,1,1,4.045-4.045,4.045,4.045,0,0,1-4.045,4.045m0-32.359A4.045,4.045,0,1,1,8.09,68.763a4.045,4.045,0,0,1-4.045,4.045m0-32.359A4.045,4.045,0,1,1,8.09,36.4a4.045,4.045,0,0,1-4.045,4.045m0-32.359A4.045,4.045,0,1,1,8.09,4.045,4.045,4.045,0,0,1,4.045,8.09" transform="translate(0 -0.536)" fill="#e6e6e6"></path>
      </g>
    </g>
  </g>
</svg>
